<svg width="1815" height="97" viewBox="0 0 1815 97" fill="none" xmlns="http://www.w3.org/2000/svg">
<path d="M76.6446 44.7953V87.549C68.6942 91.8911 57.6735 94.6995 46.7828 94.6995C20.6413 94.6995 0 74.4032 0 48.5C0 22.5968 21.0213 2.30054 47.8029 2.30054C57.0335 2.30054 65.614 4.73052 73.0544 8.68422L71.1343 18.6431C64.5939 14.1716 56.5234 11.4926 47.8129 11.4926C26.7916 11.4926 10.2606 27.8253 10.2606 48.51C10.2606 69.1847 26.2816 85.5174 46.6628 85.5174C54.6133 85.5174 60.8837 84.2426 66.9141 81.5637V53.9974H40.7625L42.5526 44.8053H76.6446V44.7953Z" fill="white"/>
<path d="M137.649 93.1658L107.147 55.77V93.1658H97.4062V3.82422H115.087C134.188 3.82422 146.619 15.5658 146.619 31.6495C146.619 45.8111 136.499 56.2779 121.498 58.449L150.209 93.1658H137.649ZM107.147 51.0495H115.097C128.298 51.0495 136.369 43.0126 136.369 31.7789C136.369 20.9337 128.298 13.0163 115.097 13.0163H107.147V51.0495Z" fill="white"/>
<path d="M213.903 62.283H179.811L166.61 93.1657H156.229L196.862 0.637207L237.484 93.1657H227.104L213.903 62.283ZM210.063 53.3498L196.862 22.7162L183.661 53.3498H210.063Z" fill="white"/>
<path d="M250.306 3.83423H269.657C296.438 3.83423 316.56 22.9753 316.56 48.5C316.56 74.0248 296.438 93.1659 269.657 93.1659H250.306V3.83423ZM269.657 83.9837C290.548 83.9837 306.309 68.6669 306.309 48.5C306.309 28.3332 290.548 13.0164 269.657 13.0164H260.046V83.9738H269.657V83.9837Z" fill="white"/>
<path d="M333.61 59.3451V4.72039L343.351 2.93774V58.3293C343.351 74.9209 352.451 85.5172 366.552 85.5172C380.653 85.5172 389.754 74.9209 389.754 58.3293V4.72039L399.494 2.93774V59.3551C399.494 80.5377 386.294 94.7093 366.552 94.7093C346.811 94.7093 333.61 80.5378 333.61 59.3451Z" fill="white"/>
<path d="M466.508 62.283H432.415L419.215 93.1657H408.834L449.466 0.637207L490.089 93.1657H479.708L466.508 62.283ZM462.667 53.3498L449.466 22.7162L436.266 53.3498H462.667Z" fill="white"/>
<path d="M522.902 13.0163V93.1658H513.161V13.0163H487.27L489.06 3.82422H546.993L548.783 13.0163H522.902Z" fill="white"/>
<path d="M563.395 4.72039L573.135 2.93774V93.1756H563.395V4.72039Z" fill="white"/>
<path d="M591.466 48.5C591.466 22.5869 612.227 2.30054 638.629 2.30054C665.03 2.30054 685.792 22.5968 685.792 48.5C685.792 74.4032 665.03 94.6995 638.629 94.6995C612.227 94.6995 591.466 74.4132 591.466 48.5ZM675.541 48.5C675.541 27.8253 659.26 11.4827 638.629 11.4827C617.997 11.4827 601.716 27.8153 601.716 48.5C601.716 69.1748 617.997 85.5074 638.629 85.5074C659.26 85.5074 675.541 69.1748 675.541 48.5Z" fill="white"/>
<path d="M779.217 97L712.833 24.6384V93.1758H703.093V0L769.477 72.3616V4.72052L779.217 2.80841V97Z" fill="white"/>
<path d="M884.694 83.9837L882.904 93.1758H834.331V3.83423H881.114L882.904 13.0263H844.072V42.5048H876.244V51.6969H844.072V83.9837H884.694Z" fill="white"/>
<path d="M958.508 93.1658L933.007 55.3916L907.505 93.1658H895.975L927.627 47.3448L897.385 3.82422H908.915L933.007 39.4374L957.098 3.82422H968.629L938.387 47.3448L970.039 93.1658H958.508Z" fill="white"/>
<path d="M1057.83 2.93774V93.1756H1048.09V52.3341H994.26V93.1756H984.52V4.73036L994.26 2.9477V43.1519H1048.09V4.74031L1057.83 2.93774Z" fill="white"/>
<path d="M1083.98 4.72039L1093.72 2.93774V93.1756H1083.98V4.72039Z" fill="white"/>
<path d="M1172.03 68.7964C1172.03 83.2169 1160.62 93.1758 1144.22 93.1758H1119.23V3.83423H1142.94C1158.83 3.83423 1169.98 13.4048 1169.98 27.0585C1169.98 36.38 1164.47 43.65 1155.88 47.2253C1165.75 50.6711 1172.03 58.5785 1172.03 68.7964ZM1128.97 13.0164V43.3911H1142.94C1152.94 43.3911 1159.98 37.0074 1159.98 27.6958C1159.98 19.0216 1152.93 13.0164 1142.94 13.0164H1128.97ZM1162.03 68.2785C1162.03 58.9569 1154.73 52.5832 1144.22 52.5832H1128.97V83.9837H1144.22C1154.72 83.9837 1162.03 77.6 1162.03 68.2785Z" fill="white"/>
<path d="M1192.66 4.72039L1202.4 2.93774V93.1756H1192.66V4.72039Z" fill="white"/>
<path d="M1252.26 13.0163V93.1658H1242.52V13.0163H1216.62L1218.41 3.82422H1276.35L1278.14 13.0163H1252.26Z" fill="white"/>
<path d="M1292.75 4.72039L1302.49 2.93774V93.1756H1292.75V4.72039Z" fill="white"/>
<path d="M1320.82 48.5C1320.82 22.5869 1341.58 2.30054 1367.98 2.30054C1394.38 2.30054 1415.15 22.5968 1415.15 48.5C1415.15 74.4032 1394.38 94.6995 1367.98 94.6995C1341.58 94.6995 1320.82 74.4132 1320.82 48.5ZM1404.9 48.5C1404.9 27.8253 1388.61 11.4827 1367.98 11.4827C1347.35 11.4827 1331.07 27.8153 1331.07 48.5C1331.07 69.1748 1347.35 85.5074 1367.98 85.5074C1388.61 85.5074 1404.9 69.1748 1404.9 48.5Z" fill="white"/>
<path d="M1508.57 97L1442.19 24.6384V93.1758H1432.45V0L1498.83 72.3616V4.72052L1508.57 2.80841V97Z" fill="white"/>
<path d="M1611.49 83.9835L1609.7 93.1756H1557.02L1587.15 56.2877C1597.79 43.142 1601.37 35.613 1601.37 28.7214C1601.37 18.633 1593.81 11.363 1584.2 11.363C1574.59 11.363 1567.03 18.8919 1567.03 28.5919C1567.03 32.5456 1568.31 36.1209 1569.98 39.3177L1560.23 41.2298C1558.18 37.5251 1557.03 33.193 1557.03 28.5919C1557.03 13.783 1568.96 2.1709 1584.21 2.1709C1599.33 2.1709 1611.38 13.2751 1611.38 28.7214C1611.38 37.0172 1608.05 45.5719 1595.1 61.5162L1576.9 83.9835H1611.49Z" fill="white"/>
<path d="M1622.64 48.5001C1622.64 23.6127 1634.3 2.54956 1655.32 2.54956C1676.34 2.54956 1688 23.6127 1688 48.5001C1688 73.3875 1676.34 94.4506 1655.32 94.4506C1634.3 94.4506 1622.64 73.3875 1622.64 48.5001ZM1677.74 48.5001C1677.74 29.608 1671.08 11.7417 1655.31 11.7417C1639.55 11.7417 1632.88 29.608 1632.88 48.5001C1632.88 67.3922 1639.54 85.2585 1655.31 85.2585C1671.08 85.2585 1677.74 67.3922 1677.74 48.5001Z" fill="white"/>
<path d="M1751.44 83.9835L1749.65 93.1756H1696.97L1727.09 56.2877C1737.74 43.142 1741.32 35.613 1741.32 28.7214C1741.32 18.633 1733.75 11.363 1724.14 11.363C1714.53 11.363 1706.97 18.8919 1706.97 28.5919C1706.97 32.5456 1708.25 36.1209 1709.92 39.3177L1700.18 41.2298C1698.13 37.5251 1696.98 33.193 1696.98 28.5919C1696.98 13.783 1708.9 2.1709 1724.15 2.1709C1739.28 2.1709 1751.33 13.2751 1751.33 28.7214C1751.33 37.0172 1748 45.5719 1735.04 61.5162L1716.84 83.9835H1751.44Z" fill="white"/>
<path d="M1815 65.2211C1815 81.5537 1801.8 94.4506 1784.88 94.4506C1774.5 94.4506 1766.17 89.6006 1760.02 81.9421L1765.15 73.6464C1769.51 80.03 1776.17 85.2585 1784.89 85.2585C1796.17 85.2585 1805.01 76.4548 1805.01 65.0916C1805.01 53.9874 1796.68 45.1837 1783.99 45.1837C1780.66 45.1837 1776.94 45.8211 1773.1 46.7174L1796.3 13.0263H1762.72L1764.51 3.83423H1814.75L1789.89 38.1627C1803.73 38.5411 1815 50.2827 1815 65.2211Z" fill="white"/>
</svg>
